<?xml version="1.0" encoding="utf-8"?>
<!-- Generator: Adobe Illustrator 22.0.0, SVG Export Plug-In . SVG Version: 6.00 Build 0)  -->
<svg version="1.1" id="Layer_1" xmlns="http://www.w3.org/2000/svg" xmlns:xlink="http://www.w3.org/1999/xlink" x="0px" y="0px"
	 viewBox="0 0 24 24" style="enable-background:new 0 0 24 24;" xml:space="preserve">
<style type="text/css">
	.st0{fill:#FFFFFF;}
</style>
<path class="st0" d="M12,15c0.8,0,1.5-0.3,2.1-0.9c0.6-0.6,0.9-1.3,0.9-2.1s-0.3-1.5-0.9-2.1C13.5,9.3,12.8,9,12,9s-1.5,0.3-2.1,0.9
	C9.3,10.5,9,11.2,9,12s0.3,1.5,0.9,2.1C10.5,14.7,11.2,15,12,15 M12,2c2.8,0,5.1,1,7,2.9s3,4.3,3,7.1v1.4c0,1-0.4,1.9-1,2.6
	c-0.7,0.7-1.5,1-2.5,1c-1.2,0-2.2-0.5-2.9-1.5c-1,1-2.2,1.5-3.6,1.5c-1.4,0-2.6-0.5-3.5-1.5c-1-1-1.5-2.2-1.5-3.5
	c0-1.4,0.5-2.6,1.5-3.5c1-1,2.2-1.5,3.5-1.5c1.4,0,2.6,0.5,3.5,1.5c1,1,1.5,2.2,1.5,3.5v1.4c0,0.4,0.2,0.8,0.5,1.1
	c0.3,0.3,0.7,0.5,1,0.5c0.4,0,0.8-0.2,1.1-0.5c0.3-0.3,0.4-0.7,0.4-1.1V12c0-2.2-0.8-4.1-2.4-5.7S14.2,4,12,4S7.9,4.8,6.3,6.3
	S4,9.8,4,12s0.8,4.1,2.3,5.6S9.8,20,12,20h5v2h-5c-2.8,0-5.1-1-7.1-3S2,14.8,2,12s1-5.1,2.9-7.1S9.3,2,12,2z"/>
</svg>
