<?xml version="1.0" encoding="utf-8"?>
<!-- Generator: Adobe Illustrator 22.0.0, SVG Export Plug-In . SVG Version: 6.00 Build 0)  -->
<svg version="1.1" id="Layer_1" xmlns="http://www.w3.org/2000/svg" xmlns:xlink="http://www.w3.org/1999/xlink" x="0px" y="0px"
	 viewBox="0 0 24 24" style="enable-background:new 0 0 24 24;" xml:space="preserve">
<style type="text/css">
	.st0{fill:#FFFFFF;}
</style>
<path class="st0" d="M7.8,2h8.4C19.4,2,22,4.6,22,7.8v8.4c0,3.2-2.6,5.8-5.8,5.8H7.8C4.6,22,2,19.4,2,16.2V7.8C2,4.6,4.6,2,7.8,2
	 M7.6,4C5.6,4,4,5.6,4,7.6l0,0v8.8c0,2,1.6,3.6,3.6,3.6h8.8c2,0,3.6-1.6,3.6-3.6c0,0,0,0,0,0V7.6c0-2-1.6-3.6-3.6-3.6H7.6 M17.3,5.5
	c0.7,0,1.3,0.6,1.3,1.3S17.9,8,17.3,8S16,7.4,16,6.8S16.6,5.5,17.3,5.5 M12,7c2.8,0,5,2.2,5,5s-2.2,5-5,5s-5-2.2-5-5S9.2,7,12,7
	 M12,9c-1.7,0-3,1.3-3,3s1.3,3,3,3s3-1.3,3-3S13.7,9,12,9z"/>
</svg>
