<?xml version="1.0" encoding="utf-8"?>
<!-- Generator: Adobe Illustrator 22.0.0, SVG Export Plug-In . SVG Version: 6.00 Build 0)  -->
<svg version="1.1" id="Layer_1" xmlns="http://www.w3.org/2000/svg" xmlns:xlink="http://www.w3.org/1999/xlink" x="0px" y="0px"
	 viewBox="0 0 24 24" style="enable-background:new 0 0 24 24;" xml:space="preserve">
<style type="text/css">
	.st0{fill:#FFFFFF;}
</style>
<path class="st0" d="M17.9,10.9C14.7,9,9.4,8.8,6.3,9.8c-0.5,0.1-1-0.1-1.2-0.6C5,8.6,5.3,8.1,5.8,8c3.6-1.1,9.4-0.8,13.1,1.4
	c0.4,0.3,0.6,0.8,0.4,1.3C19,11,18.4,11.1,17.9,10.9 M17.8,13.7c-0.3,0.4-0.7,0.5-1,0.3c-2.7-1.6-6.8-2.1-9.9-1.1
	c-0.4,0.1-0.9-0.1-1-0.5c-0.1-0.4,0.1-0.9,0.5-0.9c3.7-1.1,8.1-0.6,11.3,1.3C17.9,12.9,18,13.4,17.8,13.7 M16.6,16.5
	c-0.2,0.3-0.6,0.4-0.9,0.2c-2.4-1.4-5.3-1.8-8.8-0.9c-0.3,0.1-0.6-0.1-0.8-0.4c-0.1-0.4,0.2-0.6,0.5-0.8c3.8-0.9,7.1-0.5,9.7,1.1
	C16.7,15.8,16.8,16.1,16.6,16.5 M12,2C6.5,2,2,6.5,2,12s4.5,10,10,10s10-4.5,10-10S17.5,2,12,2z"/>
</svg>
