<?xml version="1.0" encoding="utf-8"?>
<!-- Generator: Adobe Illustrator 22.0.0, SVG Export Plug-In . SVG Version: 6.00 Build 0)  -->
<svg version="1.1" id="Layer_1" xmlns="http://www.w3.org/2000/svg" xmlns:xlink="http://www.w3.org/1999/xlink" x="0px" y="0px"
	 viewBox="0 0 165.8 141.6" style="enable-background:new 0 0 165.8 141.6;" xml:space="preserve">
<style type="text/css">
	.st0{fill:url(#SVGID_1_);}
	.st1{fill:url(#SVGID_2_);}
	.st2{filter:url(#Adobe_OpacityMaskFilter);}
	.st3{mask:url(#SVGID_3_);fill:url(#SVGID_4_);}
	.st4{opacity:0.1;fill:url(#SVGID_5_);}
	.st5{fill:url(#SVGID_6_);}
	.st6{fill:url(#SVGID_7_);}
</style>
<g>
	<g>
		<linearGradient id="SVGID_1_" gradientUnits="userSpaceOnUse" x1="41.9777" y1="49.9099" x2="11.6365" y2="145.3007">
			<stop  offset="0" style="stop-color:#611BEA"/>
			<stop  offset="1" style="stop-color:#161616"/>
		</linearGradient>
		<path class="st0" d="M50.5,131.5H24c-0.9,0-1.7-0.6-1.9-1.5L4.3,56.6c-0.3-1.2,0.6-2.5,1.9-2.5h26.5c0.9,0,1.7,0.6,1.9,1.5
			l17.8,73.5C52.7,130.3,51.7,131.5,50.5,131.5z"/>
		<linearGradient id="SVGID_2_" gradientUnits="userSpaceOnUse" x1="88.2117" y1="64.6156" x2="57.8705" y2="160.0064">
			<stop  offset="0" style="stop-color:#611BEA"/>
			<stop  offset="1" style="stop-color:#161616"/>
		</linearGradient>
		<path class="st1" d="M99.8,131.5H73.5c-0.8,0-1.6-0.5-1.9-1.3L51.4,73.6C51,72.3,51.9,71,53.3,71h26.4c0.8,0,1.6,0.5,1.9,1.3
			l20.1,56.6C102.1,130.2,101.2,131.5,99.8,131.5z"/>
		<defs>
			<filter id="Adobe_OpacityMaskFilter" filterUnits="userSpaceOnUse" x="74.2" y="28.8" width="88.3" height="102.8">
				<feFlood  style="flood-color:white;flood-opacity:1" result="back"/>
				<feBlend  in="SourceGraphic" in2="back" mode="normal"/>
			</filter>
		</defs>
		<mask maskUnits="userSpaceOnUse" x="74.2" y="28.8" width="88.3" height="102.8" id="SVGID_3_">
			<g class="st2">
				<path d="M149,10.1l-31,22.1c-1.2,0.9-1.1,2.7,0.3,3.4L123,38l-16.1,31.2h28.7l9.7-20l4.8,2.4c1.3,0.7,2.9-0.3,2.9-1.8l-0.9-38.1
					C152.1,10.1,150.3,9.2,149,10.1z"/>
			</g>
		</mask>
		<linearGradient id="SVGID_4_" gradientUnits="userSpaceOnUse" x1="121.656" y1="75.2533" x2="91.3148" y2="170.6441">
			<stop  offset="0" style="stop-color:#611BEA"/>
			<stop  offset="1" style="stop-color:#161616"/>
		</linearGradient>
		<path class="st3" d="M160.5,131.5h-25.8c-0.7,0-1.3-0.3-1.6-0.9L74.5,43.1c-0.6-0.9-0.4-2.2,0.6-2.8l17.5-11.3
			c0.9-0.6,2.1-0.3,2.7,0.6l66.8,98.8C163,129.8,162,131.5,160.5,131.5z"/>
	</g>
	<linearGradient id="SVGID_5_" gradientUnits="userSpaceOnUse" x1="118.8611" y1="69.1781" x2="118.8611" y2="82.2024">
		<stop  offset="0" style="stop-color:#032E3F"/>
		<stop  offset="0.9872" style="stop-color:#002838;stop-opacity:0"/>
	</linearGradient>
	<polygon class="st4" points="106.9,69.2 119.7,82.1 130.8,82.2 122,69.2 	"/>
	<g>
		<linearGradient id="SVGID_6_" gradientUnits="userSpaceOnUse" x1="72.8202" y1="158.8301" x2="43.8582" y2="79.0696">
			<stop  offset="0" style="stop-color:#2E6AEF"/>
			<stop  offset="1" style="stop-color:#06B8EF"/>
		</linearGradient>
		<path class="st5" d="M80,71h-1.4h0H49.5c-0.8,0-1.6,0.5-1.9,1.3l-22,58.1c-0.3,0.7-1,1.2-1.8,1.2h1.4h0h29.2
			c0.8,0,1.6-0.5,1.9-1.3l22-58.1C78.5,71.4,79.2,71,80,71z"/>
		<linearGradient id="SVGID_7_" gradientUnits="userSpaceOnUse" x1="136.0952" y1="135.8542" x2="107.1331" y2="56.0937">
			<stop  offset="0" style="stop-color:#2E6AEF"/>
			<stop  offset="1" style="stop-color:#06B8EF"/>
		</linearGradient>
		<path class="st6" d="M152.1,11.7c0-1.6-1.8-2.5-3.1-1.6l-31,22.1c-1.2,0.9-1.1,2.7,0.3,3.4L123,38l-47.8,92.5
			c-0.4,0.6-1.2,1-1.9,1h1.4h0H104c0.8,0,1.5-0.4,1.8-1.1l39.6-81.2l4.8,2.4c1.3,0.7,2.9-0.3,2.9-1.8L152.1,11.7z"/>
	</g>
</g>
</svg>
