<?xml version="1.0" encoding="utf-8"?>
<!-- Generator: Adobe Illustrator 22.0.0, SVG Export Plug-In . SVG Version: 6.00 Build 0)  -->
<svg version="1.1" id="Layer_1" xmlns="http://www.w3.org/2000/svg" xmlns:xlink="http://www.w3.org/1999/xlink" x="0px" y="0px"
	 viewBox="0 0 158.7 122.4" style="enable-background:new 0 0 158.7 122.4;" xml:space="preserve">
<style type="text/css">
	.st0{fill:url(#SVGID_1_);}
	.st1{fill:url(#SVGID_2_);}
	.st2{fill:url(#SVGID_3_);}
	.st3{opacity:0.1;fill:url(#SVGID_4_);enable-background:new    ;}
	.st4{fill:url(#SVGID_5_);}
	.st5{fill:url(#SVGID_6_);}
</style>
<g>
	<g>
		
			<linearGradient id="SVGID_1_" gradientUnits="userSpaceOnUse" x1="38.0851" y1="84.6753" x2="7.7439" y2="-10.7155" gradientTransform="matrix(1 0 0 -1 0 125.1807)">
			<stop  offset="0" style="stop-color:#611BEA"/>
			<stop  offset="1" style="stop-color:#161616"/>
		</linearGradient>
		<path class="st0" d="M46.6,122.1H20.1c-0.9,0-1.7-0.6-1.9-1.5L0.4,47.2C0.1,46,1,44.7,2.3,44.7h26.5c0.9,0,1.7,0.6,1.9,1.5
			l17.8,73.5C48.8,120.9,47.8,122.1,46.6,122.1z"/>
		
			<linearGradient id="SVGID_2_" gradientUnits="userSpaceOnUse" x1="84.2945" y1="69.9774" x2="53.9533" y2="-25.4134" gradientTransform="matrix(1 0 0 -1 0 125.1807)">
			<stop  offset="0" style="stop-color:#611BEA"/>
			<stop  offset="1" style="stop-color:#161616"/>
		</linearGradient>
		<path class="st1" d="M95.9,122.1H69.6c-0.8,0-1.6-0.5-1.9-1.3L47.5,64.2c-0.4-1.3,0.5-2.6,1.9-2.6h26.4c0.8,0,1.6,0.5,1.9,1.3
			l20.1,56.6C98.2,120.8,97.3,122.1,95.9,122.1z"/>
		
			<linearGradient id="SVGID_3_" gradientUnits="userSpaceOnUse" x1="117.7326" y1="59.3417" x2="87.3914" y2="-36.0491" gradientTransform="matrix(1 0 0 -1 0 125.1807)">
			<stop  offset="0" style="stop-color:#611BEA"/>
			<stop  offset="1" style="stop-color:#161616"/>
		</linearGradient>
		<path class="st2" d="M156.6,122.1h-25.8c-0.7,0-1.3-0.3-1.6-0.9L70.6,33.7c-0.6-0.9-0.4-2.2,0.6-2.8l17.5-11.3
			c0.9-0.6,2.1-0.3,2.7,0.6l66.8,98.8C159.1,120.4,158.1,122.1,156.6,122.1z"/>
	</g>
	
		<linearGradient id="SVGID_4_" gradientUnits="userSpaceOnUse" x1="114.9413" y1="65.4123" x2="114.9413" y2="52.388" gradientTransform="matrix(1 0 0 -1 0 125.1807)">
		<stop  offset="0" style="stop-color:#032E3F"/>
		<stop  offset="0.9872" style="stop-color:#002838;stop-opacity:0"/>
	</linearGradient>
	<polygon class="st3" points="103,59.8 115.8,72.7 126.9,72.8 118.1,59.8 	"/>
	<g>
		
			<linearGradient id="SVGID_5_" gradientUnits="userSpaceOnUse" x1="68.8847" y1="-24.2495" x2="39.9227" y2="55.511" gradientTransform="matrix(1 0 0 -1 0 125.1807)">
			<stop  offset="0" style="stop-color:#2E6AEF"/>
			<stop  offset="1" style="stop-color:#06B8EF"/>
		</linearGradient>
		<path class="st4" d="M76.1,61.6h-1.4l0,0H45.6c-0.8,0-1.6,0.5-1.9,1.3l-22,58.1c-0.3,0.7-1,1.2-1.8,1.2h1.4l0,0h29.2
			c0.8,0,1.6-0.5,1.9-1.3l22-58.1C74.6,62,75.3,61.6,76.1,61.6z"/>
		
			<linearGradient id="SVGID_6_" gradientUnits="userSpaceOnUse" x1="132.1873" y1="-1.2635" x2="103.2252" y2="78.497" gradientTransform="matrix(1 0 0 -1 0 125.1807)">
			<stop  offset="0" style="stop-color:#2E6AEF"/>
			<stop  offset="1" style="stop-color:#06B8EF"/>
		</linearGradient>
		<path class="st5" d="M148.2,2.3c0-1.6-1.8-2.5-3.1-1.6l-31,22.1c-1.2,0.9-1.1,2.7,0.3,3.4l4.7,2.4l-47.8,92.5
			c-0.4,0.6-1.2,1-1.9,1h1.4l0,0h29.3c0.8,0,1.5-0.4,1.8-1.1l39.6-81.2l4.8,2.4c1.3,0.7,2.9-0.3,2.9-1.8L148.2,2.3z"/>
	</g>
</g>
</svg>
