<?xml version="1.0" encoding="UTF-8" standalone="no"?>
<svg xmlns:rdf="http://www.w3.org/1999/02/22-rdf-syntax-ns#" xmlns="http://www.w3.org/2000/svg" xml:space="preserve" height="172.06" viewBox="0 0 152 172.06009" width="152" version="1.1" xmlns:cc="http://creativecommons.org/ns#" xmlns:xlink="http://www.w3.org/1999/xlink" xmlns:dc="http://purl.org/dc/elements/1.1/"><g transform="matrix(1.25 0 0 -1.25 -365.77 817.48)"><g transform="matrix(2.0904 0 0 2.0904 -383.49 -636.44)"><path d="m353.33 585.99h-1.504l0.752 1.936 0.752-1.936zm23.402-17.872c-0.864 2.208-2.298 5.873-3.938 10.063-3.697 9.452-6.858 17.532-8.747 22.359h2.197v16.365h-27.254v-16.365h2.188c-1.761-4.5-4.622-11.812-7.954-20.33-1.965-5.023-3.731-9.539-4.73-12.092h-4.586v-16.295h24.887v16.295h-2.356c0.078 0.263 0.161 0.539 0.249 0.831 0.05 0.169 0.101 0.34 0.152 0.509h11.544c0.052-0.169 0.103-0.341 0.154-0.51 0.088-0.292 0.17-0.569 0.249-0.83h-2.391v-16.295h24.917v16.295h-4.581z" fill="#222"/><path d="m354.54 585.16h-3.924l1.962 5.049 1.962-5.049zm21.627-17.872c-0.832 2.123-2.37 6.057-4.152 10.609-3.893 9.953-7.336 18.753-9.181 23.468h2.582v14.71h-25.598v-14.71h2.573c-1.691-4.321-4.742-12.116-8.346-21.33-2.114-5.407-4.026-10.289-4.987-12.747h-4.322v-14.639h23.231v14.639h-2.642c0.164 0.544 0.352 1.172 0.569 1.895 0.108 0.365 0.222 0.744 0.33 1.101h12.777c0.107-0.357 0.22-0.736 0.329-1.1 0.217-0.724 0.406-1.351 0.569-1.896h-2.676v-14.639h23.262v14.639h-4.318z" fill="#fc0"/><path d="m352.58 595.24 4.624-11.9h-9.248l4.624 11.9zm22.345-29.772c-0.606 1.548-2.479 6.336-4.591 11.736-3.947 10.087-8.707 22.256-10.167 25.984h3.43v11.066h-21.955v-11.066h3.42c-1.353-3.455-5.548-14.177-9.322-23.827-2.528-6.46-4.765-12.177-5.436-13.893h-3.744v-10.998h19.588v10.998h-3.273c0.265 0.869 0.68 2.248 1.276 4.24 0.272 0.909 0.551 1.839 0.72 2.398h15.486c0.173-0.567 0.449-1.494 0.721-2.397 0.596-1.993 1.012-3.372 1.276-4.241h-3.307v-10.998h19.619v10.998h-3.741z" fill="#222"/><path d="m377.84 555.3h-17.962v9.339h3.61c-0.164 0.41-2.441 8.107-2.518 8.297h-16.705c-0.077-0.19-2.353-7.887-2.518-8.297h3.576v-9.339h-17.932v9.339h3.481c0.08 0.202 15.231 38.938 15.407 39.379h-3.806v9.409h20.299v-9.409h-3.816c0.177-0.441 15.327-39.177 15.408-39.379h3.476v-9.339zm-31.091 27.212h11.669l-5.835 15.015-5.834-15.015z" fill="#fff"/><path d="m366 576.61s-0.326-0.651-0.528-0.895c0 0 0.202-0.488 0.507-0.305 0.306 0.184 0.245 0.774 0.021 1.2m-3.973 0.274c0.129 0.155 0.507 0.634 0.602 1.033 0.116 0.482 0.084 0.88-0.062 0.974-0.146 0.095-0.482-0.199-0.535-1.361-0.01-0.23-0.011-0.445-0.005-0.646m-1.811 0c0.129 0.155 0.507 0.634 0.603 1.033 0.115 0.482 0.083 0.88-0.062 0.974-0.148 0.095-0.483-0.199-0.535-1.361-0.011-0.23-0.012-0.445-0.006-0.646m-5.303 1.466c-0.315 0.14-0.444-0.12-0.583-1.018-0.139-0.899 0.055-1.315 0.212-1.277 0.158 0.036 0.296 0.305 0.288 0.638-0.009 0.333 0.083 1.657 0.083 1.657m-9.359-0.546c-0.152 0.074-0.377 0-0.377-0.44v-0.987c0-0.236 0.405-0.924 0.454-0.111 0.063 1.036 0.048 1.474-0.077 1.538m21.178 0.129c0-0.326-0.02-1.445-0.02-1.974 0-0.53-0.122-1.098-0.55-1.098-0.426 0-0.813 0.346-0.813 0.346s-0.671-0.203-0.997 0.06c-0.325 0.265-0.406 0.653-0.305 1.343l0.101 0.692-0.202 0.061s-0.286-1.769-1.156-2.258c-0.212-0.119-0.925-0.25-1.271 0.699-0.122-0.175-0.295-0.403-0.439-0.517-0.173-0.137-0.853-0.334-1.254 0.357-0.536-0.566-1.059-0.315-1.218 0.1-0.175 0.46-0.122 1.098-0.108 1.504 0.014 0.408-0.42 0.15-0.434-0.067-0.013-0.217-0.054-0.772-0.135-1.492-0.056-0.487-0.163-0.638-0.367-0.516-0.127 0.076-0.217 0.2-0.271 0.438-0.151-0.147-0.391-0.319-0.666-0.297-0.229 0.017-0.37 0.172-0.461 0.385-0.58-0.314-1.068-0.051-1.068-0.051s-0.62-0.66-0.982-0.261c-0.089 0.099-0.18 0.272-0.248 0.521-0.084-0.166-0.272-0.493-0.549-0.641-0.379-0.204-0.665-0.013-0.895 0.557-0.042 0.106-0.071 0.247-0.091 0.408-0.583-0.783-1.203-0.721-1.374-0.273-0.176 0.462-0.122 1.1-0.108 1.507 0.013 0.405-0.421 0.149-0.435-0.068-0.013-0.217-0.054-0.775-0.135-1.493-0.055-0.485-0.162-0.638-0.366-0.515-0.13 0.076-0.22 0.205-0.274 0.448-0.172-0.179-0.497-0.462-0.85-0.489-0.24-0.017-0.41 0.18-0.509 0.444-0.179-0.192-0.441-0.427-0.642-0.422-0.455 0.017-0.628 0.551-0.628 0.88v0.911c-0.073-0.094-0.19-0.22-0.313-0.269-0.137-0.051-0.283-0.093-0.471-0.061v-0.533c0-0.816-0.329-1.146-0.894-0.879-0.308 0.145-0.473 0.421-0.562 0.684-0.065-0.258-0.252-0.81-0.661-0.81-0.533 0-0.768 0.675-0.768 1.491v1.993c0 0.265-0.141 0.516-0.377 0.155s-0.283-0.547-0.283-0.816v-2.022c0-0.361-0.219-0.612-0.58-0.612s-0.439 0.203-0.439 0.816v2.163c0 0.283-0.174 0.753-0.392 0.252-0.22-0.503-0.33-0.927-0.33-1.287v-1.396c0-0.236-0.031-0.582-0.392-0.582s-0.549 0.175-0.549 0.897v2.055c0 0.736 0.095 1.113-0.031 1.176-0.126 0.061-0.346-0.08-1.224-0.927l-0.314 0.346s1.256 1.066 1.71 1.428c0.455 0.361 1.145 0.313 1.239-0.33 0 0 0.363 0.493 0.706 0.533 0.534 0.062 0.596-1.003 0.596-1.003s0.372 0.481 0.675 0.878c0.408 0.534 0.893 0.391 0.893-0.329 0-0.723-0.109-2.683-0.14-3.31-0.029-0.571 0.292-0.958 0.587-0.468-0.017 0.105-0.023 0.197-0.023 0.264v1.521c0 1.241 0.812 1.309 1.099 1.161 0.391-0.204 0.454-0.644 0.454-1.144 0-0.692 0.242-0.808 0.423-0.675 0.154 0.112 0.277 0.246 0.361 0.348v0.985c0 0.424 0.329 0.424 0.471 0.282 0.157-0.158 0.11-0.314 0.11-0.595v-1.883c0-0.643 0.204-0.722 0.361-0.643 0.09 0.046 0.174 0.193 0.23 0.312-0.021 0.552 0.026 2.033 0.114 2.402 0.096 0.392 0.317 0.458 0.47 0.348 0.172-0.126 0.126-0.394 0.111-0.63-0.016-0.238-0.094-0.676-0.157-1.444-0.063-0.769 0.038-1.101 0.33-1.051 0.175 0.03 0.426 0.392 0.537 0.564 0.003 0.622 0.097 1.493 0.15 2.033 0.068 0.692 0.348 0.68 0.528 0.584 0.176-0.097 0.163-0.542 0.163-0.542s0.353 0.433 0.665 0.637c0.312 0.202 0.407-0.028 0.394-0.367-0.014-0.338-0.041-1.276-0.041-1.898 0-0.625 0.149-0.693 0.393-0.516 0.212 0.153 0.413 0.57 0.462 0.678 0.011 0.518 0.05 1.065 0.062 1.459-0.222-0.003-0.437-0.01-0.565-0.02-0.298-0.029-0.203 0.23 0.014 0.243 0.185 0.012 0.354 0.081 0.56 0.101 0.022 0.683 0.09 1.294 0.09 1.73 0 0.474 0.277 0.378 0.448 0.297 0.231-0.108 0.204-0.229 0.149-0.651-0.024-0.188-0.073-0.732-0.12-1.362 0.181 0.006 0.236 0 0.446-0.061 0.325-0.095 0-0.27-0.258-0.27-0.052 0-0.127 0-0.211-0.001-0.048-0.684-0.088-1.413-0.088-1.886 0-1.004 0.367-0.99 0.571-0.772 0.204 0.216 0.284 0.555 0.284 0.555l0.113-0.233c-0.058 0.405-0.061 0.934 0.05 1.597 0.231 1.379 0.806 1.361 0.982 1.296s0.342-0.268 0.435-0.408c0.093-0.138 0.316-0.24 0.316-0.24 0.11-0.047 0.055-0.15 0.008-0.417-0.046-0.269-0.102-0.872-0.148-1.344-0.046-0.473 0.11-0.713 0.278-0.694 0.104 0.011 0.235 0.089 0.321 0.149-0.048 0.424-0.034 1.184-0.034 1.815 0 0.713 0.195 0.899 0.482 0.85 0.177-0.025 0.232-0.304 0.185-0.611-0.046-0.304-0.083-0.833-0.103-1.629-0.017-0.796 0.27-0.843 0.409-0.742 0.099 0.073 0.206 0.205 0.26 0.276v0.009c-0.014 0.625 0.092 1.591 0.149 2.17 0.068 0.693 0.349 0.681 0.529 0.584 0.177-0.095 0.163-0.542 0.163-0.542s0.353 0.434 0.664 0.639c0.312 0.202 0.407-0.029 0.393-0.367-0.012-0.341-0.041-1.277-0.041-1.899 0-0.624 0.129-0.901 0.372-0.726 0.055 0.041 0.108 0.097 0.159 0.163-0.062 0.263-0.102 0.585-0.102 0.989 0 1.446 0.644 2.421 1.336 2.095 0.682-0.321 0.786-2.021-0.603-2.923 0.062-0.451 0.191-0.742 0.403-0.774 0.305-0.043 0.538 0.269 0.752 0.638-0.053 0.264-0.085 0.578-0.085 0.964 0 1.446 0.652 2.421 1.344 2.095 0.681-0.321 0.71-1.992-0.604-2.923 0.063-0.451 0.19-0.774 0.404-0.774 0.253 0 0.721 0.368 1.006 1.405 0.284 1.038 0.325 1.628 0.325 1.791s0.122 0.183 0.305 0.041c0.183-0.141 0.387-0.243 0.528-0.243 0.144 0 0.245-0.124 0.164-0.509-0.081-0.388-0.265-1.406-0.284-1.812-0.021-0.407 0.284-0.834 0.731-0.143 0.448 0.693 0.631 2.035 0.773 2.483 0.142 0.447 0.265 0.447 0.387 0.346 0.122-0.102 0-0.224 0.122-0.304 0.123-0.082 0.203-0.368 0.203-0.693m-10.671 2.188c0 0.241 0.183 0.436 0.409 0.436 0.225 0 0.407-0.195 0.407-0.436 0-0.24-0.182-0.436-0.407-0.436-0.226 0-0.409 0.196-0.409 0.436" fill="#222"/></g></g></svg>
