<?xml version="1.0" encoding="utf-8"?>
<!-- Generator: Adobe Illustrator 22.0.0, SVG Export Plug-In . SVG Version: 6.00 Build 0)  -->
<svg version="1.1" id="Layer_1" xmlns="http://www.w3.org/2000/svg" xmlns:xlink="http://www.w3.org/1999/xlink" x="0px" y="0px"
	 viewBox="0 0 227.5 269.1" style="enable-background:new 0 0 227.5 269.1;" xml:space="preserve">
<style type="text/css">
	.st0{fill:#FFFFFF;}
</style>
<g>
	<path d="M116.5,105.7c-2.2,3.6-4.9,6.9-8,9.9c-3.1,3-6.5,5.5-10.2,7.7c-3.7,2.1-7.7,3.8-12,5c-4.3,1.2-8.7,1.7-13.3,1.7
		c-7.1,0-13.7-1.3-19.9-4c-6.2-2.7-11.6-6.4-16.2-11c-4.6-4.7-8.3-10.1-11-16.3c-2.7-6.2-4-12.8-4-19.9c0-7.1,1.3-13.7,4-19.9
		c2.7-6.2,6.3-11.6,11-16.3c4.6-4.7,10-8.3,16.2-11c6.2-2.7,12.8-4,19.9-4c4.6,0,9,0.6,13.3,1.7c4.3,1.2,8.3,2.8,12,5
		c3.7,2.1,7.1,4.7,10.2,7.7c3.1,3,5.7,6.3,8,10l-15.6,15.6c-1.1-2.8-2.6-5.3-4.4-7.7c-1.8-2.3-3.9-4.3-6.3-6c-2.4-1.7-5.1-3-8-3.9
		c-2.9-0.9-5.9-1.4-9.1-1.4c-4.1,0-8,0.8-11.7,2.4c-3.7,1.6-6.9,3.7-9.6,6.5c-2.7,2.7-4.8,5.9-6.4,9.6c-1.6,3.6-2.4,7.5-2.4,11.7
		c0,4.2,0.8,8.1,2.4,11.7c1.6,3.6,3.7,6.8,6.4,9.6c2.7,2.7,5.9,4.9,9.6,6.5c3.7,1.6,7.6,2.4,11.7,2.4c3.2,0,6.2-0.5,9.1-1.4
		c2.9-0.9,5.5-2.2,8-3.9c2.4-1.7,4.5-3.6,6.3-5.9c1.8-2.3,3.3-4.8,4.4-7.6L116.5,105.7z"/>
	<path class="st0" d="M131.3,130.1V27.7h21.3v80.9h48.1v21.5H131.3z"/>
</g>
<g>
	<path class="st0" d="M101.1,143.8c0,5-0.3,9.6-1,13.8c-0.7,4.2-1.6,8.1-2.7,11.6c-1.1,3.5-2.4,6.7-3.8,9.5
		c-1.4,2.8-2.8,5.3-4.3,7.4c-3.5,5.1-7.3,9.1-11.6,12.2c4.2,0,7.9,0.6,11,1.9c3.2,1.2,6,2.9,8.3,4.9c2.4,2,4.3,4.4,5.9,7
		c1.6,2.6,2.9,5.3,4,7.9c2.4,6.4,3.8,13.6,4.3,21.7H91.3c0-2.9-0.3-5.5-0.9-7.8c-0.6-2.3-1.4-4.2-2.4-5.9c-1-1.7-2.1-3.1-3.3-4.3
		c-1.2-1.2-2.5-2.1-3.9-2.9c-3-1.8-6.5-2.8-10.4-3.1H46.3v24h-20v-97.8h20v44.5c4.2,0,7.9-0.6,11.1-1.9c3.2-1.3,6.1-2.9,8.5-5
		c2.4-2,4.5-4.4,6.2-7.1s3.2-5.4,4.3-8.3c2.7-6.5,4.3-13.9,5.1-22.2H101.1z"/>
	<path d="M173.9,210.5v30.9h-20.4v-30.6l-31.1-66.7h22l19.4,47.3l19.4-47.3h21.7L173.9,210.5z"/>
</g>
</svg>
