<?xml version="1.0" encoding="utf-8"?>
<!-- Generator: Adobe Illustrator 22.0.0, SVG Export Plug-In . SVG Version: 6.00 Build 0)  -->
<svg version="1.1" id="Layer_1" xmlns="http://www.w3.org/2000/svg" xmlns:xlink="http://www.w3.org/1999/xlink" x="0px" y="0px"
	 viewBox="0 0 156.7 151.8" style="enable-background:new 0 0 156.7 151.8;" xml:space="preserve">
<style type="text/css">
	.st0{filter:url(#glow);}
	.st1{fill:url(#SVGID_1_);}
	.st2{fill:url(#SVGID_2_);}
	.st3{filter:url(#Adobe_OpacityMaskFilter);}
	.st4{mask:url(#SVGID_3_);}
	.st5{fill:url(#SVGID_4_);}
	.st6{fill:url(#SVGID_5_);}
	.st7{fill:url(#SVGID_6_);}
	.st8{fill:url(#SVGID_7_);}
</style>
<filter  id="glow">
	<feGaussianBlur  result="coloredBlur" stdDeviation="5"></feGaussianBlur>
	<feMerge>
		<feMergeNode  in="coloredBlur"></feMergeNode>
		<feMergeNode  in="SourceGraphic"></feMergeNode>
	</feMerge>
</filter>
<g>
	<g class="st0">
		<radialGradient id="SVGID_1_" cx="122.014" cy="117.1134" r="99.4277" gradientUnits="userSpaceOnUse">
			<stop  offset="0" style="stop-color:#00FFAA"/>
			<stop  offset="1" style="stop-color:#00CFFF"/>
		</radialGradient>
		<circle class="st1" cx="96.5" cy="93.3" r="49.3"/>
	</g>
	<radialGradient id="SVGID_2_" cx="136.4522" cy="128.125" r="108.0107" gradientUnits="userSpaceOnUse">
		<stop  offset="0" style="stop-color:#00FFAA"/>
		<stop  offset="1" style="stop-color:#00CFFF"/>
	</radialGradient>
	<circle class="st2" cx="95.7" cy="93.3" r="51.1"/>
</g>
<defs>
	<filter id="Adobe_OpacityMaskFilter" filterUnits="userSpaceOnUse" x="2.7" y="0.3" width="118" height="118">
		<feFlood  style="flood-color:white;flood-opacity:1" result="back"/>
		<feBlend  in="SourceGraphic" in2="back" mode="normal"/>
	</filter>
</defs>
<mask maskUnits="userSpaceOnUse" x="2.7" y="0.3" width="118" height="118" id="SVGID_3_">
	<g class="st3">
		<circle cx="95.7" cy="93.3" r="51.1"/>
	</g>
</mask>
<g class="st4">
	<g class="st0">
		<radialGradient id="SVGID_4_" cx="87.3118" cy="83.2384" r="99.4277" gradientUnits="userSpaceOnUse">
			<stop  offset="0" style="stop-color:#FF0074"/>
			<stop  offset="1" style="stop-color:#FF0019"/>
		</radialGradient>
		<circle class="st5" cx="61.8" cy="59.4" r="49.3"/>
	</g>
	<radialGradient id="SVGID_5_" cx="87.4243" cy="84.1174" r="103.0941" gradientUnits="userSpaceOnUse">
		<stop  offset="0" style="stop-color:#FF0074"/>
		<stop  offset="1" style="stop-color:#FF0019"/>
	</radialGradient>
	<circle class="st6" cx="61" cy="59.4" r="51.1"/>
</g>
<radialGradient id="SVGID_6_" cx="105" cy="47.75" r="74.9542" gradientUnits="userSpaceOnUse">
	<stop  offset="6.260016e-07" style="stop-color:#FFEC00"/>
	<stop  offset="1" style="stop-color:#38FF00"/>
</radialGradient>
<path class="st7" d="M44.6,93.3c0,5.3,0.8,10.4,2.3,15.2c4.5,1.3,9.2,2,14.1,2c28.2,0,51.1-22.9,51.1-51.1c0-5.3-0.8-10.4-2.3-15.2
	c-4.5-1.3-9.2-2-14.1-2C67.5,42.2,44.6,65.1,44.6,93.3z"/>
<g class="st0">
	<radialGradient id="SVGID_7_" cx="102.185" cy="50.7698" r="67.0365" gradientUnits="userSpaceOnUse">
		<stop  offset="6.260016e-07" style="stop-color:#FFEC00"/>
		<stop  offset="1" style="stop-color:#38FF00"/>
	</radialGradient>
	<path class="st8" d="M48.2,91.5c0,4.7,0.7,9.3,2.1,13.6c4,1.1,8.2,1.8,12.6,1.8c25.2,0,45.7-20.5,45.7-45.7c0-4.7-0.7-9.3-2.1-13.6
		c-4-1.1-8.2-1.8-12.6-1.8C68.6,45.8,48.2,66.2,48.2,91.5z"/>
</g>
</svg>
