<?xml version="1.0" encoding="utf-8"?>
<!-- Generator: Adobe Illustrator 23.0.1, SVG Export Plug-In . SVG Version: 6.00 Build 0)  -->
<!DOCTYPE svg PUBLIC "-//W3C//DTD SVG 1.1//EN" "http://www.w3.org/Graphics/SVG/1.1/DTD/svg11.dtd" [
	<!ENTITY ns_extend "http://ns.adobe.com/Extensibility/1.0/">
	<!ENTITY ns_ai "http://ns.adobe.com/AdobeIllustrator/10.0/">
	<!ENTITY ns_graphs "http://ns.adobe.com/Graphs/1.0/">
	<!ENTITY ns_vars "http://ns.adobe.com/Variables/1.0/">
	<!ENTITY ns_imrep "http://ns.adobe.com/ImageReplacement/1.0/">
	<!ENTITY ns_sfw "http://ns.adobe.com/SaveForWeb/1.0/">
	<!ENTITY ns_custom "http://ns.adobe.com/GenericCustomNamespace/1.0/">
	<!ENTITY ns_adobe_xpath "http://ns.adobe.com/XPath/1.0/">
]>
<svg version="1.1" id="Layer_1" xmlns:x="&ns_extend;" xmlns:i="&ns_ai;" xmlns:graph="&ns_graphs;"
	 xmlns="http://www.w3.org/2000/svg" xmlns:xlink="http://www.w3.org/1999/xlink" x="0px" y="0px" viewBox="0 0 350 350"
	 style="enable-background:new 0 0 350 350;" xml:space="preserve">
<style type="text/css">
	.st0{fill:#FBBB05;}
	.st1{fill:#E94335;}
	.st2{fill:#4285F4;}
	.st3{fill:#0F9D58;}
</style>
<metadata>
	<sfw  xmlns="&ns_sfw;">
		<slices></slices>
		<sliceSourceBounds  bottomLeftOrigin="true" height="350" width="350" x="131" y="78"></sliceSourceBounds>
	</sfw>
</metadata>
<path class="st0" d="M87.5,79.5c48.3,0,87.5,39.2,87.5,87.5l0,0v8H8c-4.4,0-8-3.6-8-8C0,118.7,39.2,79.5,87.5,79.5L87.5,79.5z"/>
<path class="st1" d="M270.5,87.5c0,48.3-39.2,87.5-87.5,87.5h-8V8c0-4.4,3.6-8,8-8l0,0C231.3,0,270.5,39.2,270.5,87.5z"/>
<path class="st2" d="M262.5,270.5c-48.3,0-87.5-39.2-87.5-87.5l0,0v-8h167c4.4,0,8,3.6,8,8v0C350,231.3,310.8,270.5,262.5,270.5
	L262.5,270.5z"/>
<path class="st3" d="M79.5,262.5c0-48.3,39.2-87.5,87.5-87.5h8v167c0,4.4-3.6,8-8,8h0C118.7,350,79.5,310.8,79.5,262.5z"/>
</svg>
