<?xml version="1.0" encoding="utf-8"?>
<!-- Generator: Adobe Illustrator 22.0.0, SVG Export Plug-In . SVG Version: 6.00 Build 0)  -->
<svg version="1.1" id="Layer_1" xmlns="http://www.w3.org/2000/svg" xmlns:xlink="http://www.w3.org/1999/xlink" x="0px" y="0px"
	 viewBox="0 0 211.7 219.5" style="enable-background:new 0 0 211.7 219.5;" xml:space="preserve">
<style type="text/css">
	.st0{fill:#FF3D00;}
	.st1{fill:#37474F;}
	.st2{fill:#00BCD4;}
	.st3{fill:#607D8B;}
	.st4{fill:#FFB300;}
</style>
<g id="Layer_2_1_">
	<g id="Layer_1-2">
		<path class="st0" d="M105.7,12c-43.4,0-78.5,35.2-78.5,78.6l0.1,127.2l157.1-0.1l-0.1-127.2C184.3,47.1,149.1,11.9,105.7,12z"/>
		<path class="st1" d="M105.7,38.2c-28.9,0-52.4,23.5-52.3,52.4l0,0l0.1,127.2l104.7-0.1l-0.1-127.2
			C158.1,61.6,134.7,38.1,105.7,38.2C105.7,38.2,105.7,38.2,105.7,38.2z"/>
		<path class="st2" d="M105.8,53.1c-20.7,0-37.4,16.8-37.4,37.4c0,0,0,0,0,0l74.8,0C143.2,69.9,126.4,53.1,105.8,53.1z"/>
		<path class="st3" d="M68.4,113l0,56.1c0.2,20.7,17.1,37.3,37.8,37.1c20.4-0.2,36.9-16.7,37.1-37.1l0-56.1L68.4,113z"/>
		<polygon class="st4" points="105.7,0.8 89.3,13.7 105.7,38.2 122.2,13.7 		"/>
		<rect x="27.3" y="195.4" class="st4" width="26.2" height="22.4"/>
		<rect x="27.2" y="90.6" class="st4" width="26.2" height="22.4"/>
		<rect x="158.2" y="195.3" class="st4" width="26.2" height="22.4"/>
		<rect x="158.2" y="90.5" class="st4" width="26.2" height="22.4"/>
	</g>
</g>
</svg>
