<?xml version="1.0" encoding="utf-8"?>
<!-- Generator: Adobe Illustrator 26.0.3, SVG Export Plug-In . SVG Version: 6.00 Build 0)  -->
<svg version="1.1" id="Layer_1" xmlns="http://www.w3.org/2000/svg" xmlns:xlink="http://www.w3.org/1999/xlink" x="0px" y="0px"
	 viewBox="0 0 24 24" style="enable-background:new 0 0 24 24;" xml:space="preserve">
<style type="text/css">
	.st0{fill:#FFFFFF;}
</style>
<g>
	<path class="st0" d="M9,11.2c-0.6-0.9-1.8-1.4-3-1.4c-1.9,0-3.6,1.2-3.6,4.3v5.3c0,0.4,0.3,0.7,0.7,0.7c0.4,0,0.7-0.3,0.7-0.7v-5.3
		c0-2.4,1.2-3,2.3-3s2.3,1,2.3,2.6v5.8c0,0.4,0.3,0.7,0.7,0.7h0h0c0.4,0,0.7-0.3,0.7-0.7v-5.8c0-1.6,1.2-2.6,2.3-2.6
		c0.7,0,2.3,0.3,2.3,2.6l0,1.9c0,3.6,2.4,4.5,3.9,4.5c1.5,0,3.8-1.1,3.9-4.2v-5.1c0-0.9-1.3-0.9-1.3,0v5.1c0,2.4-1.8,2.9-2.6,2.9
		c-0.8,0-2.6-0.4-2.6-3.2l0-1.8c0-2.7-1.7-4.1-3.6-4.1C10.8,9.7,9.6,10.3,9,11.2z"/>
	<path class="st0" d="M15.5,7.9c0-1.3,1-2.7,2.6-2.7c1.7,0,2.6,1.4,2.6,2.7c0,1,1.3,1,1.3,0c0-2.3-1.7-4-3.9-4c-2.2,0-3.9,1.7-3.9,4
		C14.2,8.9,15.5,8.9,15.5,7.9z"/>
	<path class="st0" d="M19.1,8c0-0.5-0.4-0.9-0.9-0.9S17.4,7.5,17.4,8c0,0.5,0.4,0.9,0.9,0.9S19.1,8.4,19.1,8z"/>
</g>
</svg>
