<?xml version="1.0" encoding="utf-8"?>
<!-- Generator: Adobe Illustrator 22.0.0, SVG Export Plug-In . SVG Version: 6.00 Build 0)  -->
<svg version="1.1" id="Layer_1" xmlns="http://www.w3.org/2000/svg" xmlns:xlink="http://www.w3.org/1999/xlink" x="0px" y="0px"
	 viewBox="0 0 551.2 330" style="enable-background:new 0 0 551.2 330;" xml:space="preserve">
<style type="text/css">
	.st0{fill:#24D159;}
</style>
<g>
	<g>
		<path class="st0" d="M363,329c-7.4-8.3-15.4-15.7-27.5-15.8c-3.9,0-6.8-1.7-9.5-4.5c-3.5-3.6-7.5-6.6-11.3-9.9
			c-2.6-2.3-4.6-1.8-6.7,0.7c-2.7,3.2-5.4,6.5-8.6,9c-2.9,2.2-6.7,3.3-10,5c-2.4,1.3-4.9,2.5-7.1,4.1c-4,3-7.9,6.2-11.8,9.3
			c-0.5-0.3-1.1-0.7-1.6-1c-0.1-2-0.6-4.1-0.3-6c0.8-5.1,1.9-10.1,2.8-15.2c0.7-3.9,3-6,6.9-5.6c7.9,0.8,12.1-4.4,16.3-9.6
			c2.1-2.5,1.4-4.5-1.1-6.3c-5.3-3.8-11-5.1-17.5-4c-7.2,1.2-14.4,2.2-21.7,2.6c-2,0.1-4.8-1.4-6.2-3c-2.9-3.4-5.7-7.1-7.6-11.1
			c-6.9-14-18.8-22.3-32.5-28.2c-26-11.1-44.6-29.8-57.1-54.7c-2.5-5.1-4.9-6.8-10.6-5.4c-5.4,1.3-11.2,1.4-16.9,1.8
			c-7.7,0.5-15-1.3-21.3-5.8c-6.2-4.3-12.5-4.9-19.8-2.7c-12.8,3.8-25.8,6.6-39.4,5.4C23,176.1,6.8,162,2.6,142.5
			c-0.3-1.4-0.2-2.9-0.4-4.9c1.1,0.3,2,0.3,2.5,0.7c14,9.5,29.6,10.7,45.5,7.4c10.2-2.1,20-6,30-9c4.1-1.2,8.3-2.5,12.6-3.2
			c7.1-1.1,13.5,2.6,17.1,9.4c7.6,14.3,20.5,17.2,33,7c9.8-8,18.6-17.1,28.6-24.8c15.7-12.1,33.2-21.1,53-24.3
			c8.5-1.4,17.3-0.9,25.9-1.9c25.9-2.8,50.7-9.3,72.8-23.8c2.1-1.4,4-3.2,6.3-5.1c-7.2-5.4-13.8-10.3-20.4-15.2
			c0.2-0.5,0.4-1,0.6-1.4c4,0.5,7.9,1.3,11.9,1.4c9.6,0.2,19.3,0.1,28.9-0.1c1.4,0,2.8-1.3,4.2-1.9c-1-1.2-1.7-2.8-2.9-3.7
			c-6.7-4.6-13.4-9.1-20.2-13.6c0.1-0.5,0.2-1,0.3-1.5c2.3,0.2,4.6,0.2,6.9,0.6c12.8,2.3,25.5,4.7,38.3,6.9c2.2,0.4,4.6-0.7,6.9-1.1
			c-0.6-2.3-1.2-4.5-2-6.8c-0.3-0.9-0.8-1.7-2.2-4.3c5.7,0.6,10.1,1,14.5,1.6c4.6,0.7,9.2,1.7,13.7,2.7c5.9,1.2,6.3,0.8,5.4-6.2
			c4.4,1.2,8.3,2.8,12.4,3.4c10.8,1.7,21.7,3,32.5,4.3c3.8,0.5,4.8-1.5,4.6-5.1c-0.4-6.5-0.6-13-0.4-19.5c0.1-3.2,1.4-6.4,2.1-9.6
			c1,0,2,0,3,0c1.9,3.7,3.9,7.3,5.8,11c3.1,6.2,5.6,12.9,9.5,18.7c3.5,5.2,8,10.3,13.1,14c10.6,7.7,18.9,16.6,23,29.3
			c2.1,6.5,4,13.2,7.6,18.9c5.9,9.4,12.8,18.2,19.6,27c4.3,5.6,4.6,10.8,0.2,16.1c-1.9,2.3-3.6,4.8-5,7.4c-2.6,4.8-4.9,5.8-10.1,3.8
			c-1.2-0.5-2.5-1.3-3.7-1.3c-4.9-0.1-6.4-3.4-7.5-7.3c-0.6-2.2-1-4.9-2.4-6.4c-8.1-8.4-16.8-16.4-29.1-16.7
			c-9.5-0.3-15.6-4.5-20.6-11.7c-0.8-1.1-1.6-2.1-2.5-3.1c-4.2-4.8-8.2-5.7-13.7-2.3c-4.8,2.9-9.4,6.4-13.9,9.8
			c-6.9,5.2-13.3,11-20.5,15.9c-18.3,12.5-31.2,28.3-32.4,51.5c-0.1,1.4,0.6,2.8,1.1,4.1c2.7,6.7,6.8,13.2,8.1,20.1
			c2.3,11.8,6.4,22.6,12.3,33c1.6,2.8,2.1,6.7,1.8,9.9c-1,9.3-7.6,14.3-16.7,14.1c-12.6-0.2-25.3,0.2-37.9,0.1
			c-4.2,0-7.1,1.4-9.7,4.9c-2.8,3.7-6.1,7-9.6,10.1c-2.6,2.3-3,4.5-0.3,6.6c4.7,3.7,9.5,7.3,14.5,10.4c5.5,3.4,11.5,6,17,9.4
			c1.3,0.8,2.8,4,2.3,4.7c-3.4,4.8-1,6.7,3.2,8.4c1.5,0.6,2.8,1.8,4,2.9c7.5,6.6,11.7,8.2-0.5,14.6C371,329,367,329,363,329z
			 M255.9,200.1c2.4,8.4,1.6,16.4,6.1,23.2c5.1,7.8,10.9,15.1,15.9,22.9c3.5,5.5,8.1,8.8,14.5,9c8.3,0.2,16.6-0.3,23.6,5.5
			c0.8,0.6,3.7,0.1,4.3-0.7c1.3-2,2-4.5,2.2-6.9c0.1-0.6-2.3-1.8-3.8-2.2c-2.2-0.6-4.6-0.6-6.8-1.3c-8.2-2.6-15.9-6.1-21.5-13.7
			c6.3-1.7,12-2.9,17.4-4.8c4.4-1.5,7.7-3.1,9.9,3.2c1.5,4.3,6.7,5.2,10.7,4.1c1.8-0.5,3.3-4.1,3.8-6.5c1.7-8.2,0.3-16.2-2.2-24.1
			c-1.5-4.6-4.3-5.8-8.8-4.4c-13.3,4.1-26.9,4.2-40.5,1.9C272.9,204,265.2,202.1,255.9,200.1z M368.2,243.2c3.2-0.3,6-0.5,8.8-0.8
			c0.8-0.1,1.6-0.3,2.4-0.5c4.4-1.5,6.7-5.8,4.3-8.8c-4.5-5.8-9.2-11.3-13.8-16.9c-2-2.4-3.4-2.1-4.6,0.9
			c-2.7,6.8-5.6,13.5-8.4,20.2c-1.2,2.8-0.2,4.6,2.7,5.1C362.6,242.9,365.6,243,368.2,243.2z"/>
	</g>
</g>
</svg>
