<?xml version="1.0" encoding="utf-8"?>
<!-- Generator: Adobe Illustrator 27.6.1, SVG Export Plug-In . SVG Version: 6.00 Build 0)  -->
<svg version="1.1" id="Layer_1" xmlns="http://www.w3.org/2000/svg" xmlns:xlink="http://www.w3.org/1999/xlink" x="0px" y="0px"
	 viewBox="0 0 200 181.8" style="enable-background:new 0 0 200 181.8;" xml:space="preserve">
<style type="text/css">
	.st0{fill:#FFFFFF;}
</style>
<g>
	<path class="st0" d="M91.7,63.7c0,23.9,19.5,43.4,43.4,43.4c10.6,0,20.3-3.8,27.9-10.2c-12-41.3-31.1-61.9-46.9-72.2
		C101.7,31.8,91.7,46.6,91.7,63.7z"/>
	<path class="st0" d="M168.6,120.5c-9.8,5.8-21.3,9.1-33.5,9.1c-13.4,0-26.5-4.1-37.5-11.7l-4,4l1.9,1.9l-3.1,3.1l1.6,1.6l-4.9,4.9
		L49.6,173c0.6,0.1,1.2,0.3,1.7,0.4c8.4,1.2,32.4-8.8,32.4-8.8l37.7,11.5c0,0,13.8-2.3,38.8-11.5c0.2-5,1.7-13.1,9.6-37.9
		c0.2-0.9-0.9-5.2-0.9-5.2C168.7,121.2,168.7,120.9,168.6,120.5z"/>
	<path class="st0" d="M12.2,164.7l3.1-3.1l-1.6-1.6l4.9-4.9l46-46l4.9-4.9l1.6,1.6l3.1-3.1l1.9,1.9l4.2-4.2
		c-7.2-10.8-11.1-23.6-11.1-36.7c0-19.5,8.5-37,21.9-49c-1.4-0.2-2.2-0.2-2.2-0.2s-1.3-0.3-4.3-0.7c-6.5,3.1-9.4,5.5-37.5,10.1
		C24.9,11.4,5.9,14,5.9,14S15,26.4,19.4,53C13.6,62.8,9.2,88.9,9.2,88.9s8.7,20.8,9.3,39.2c-1.7,3.5-7.8,24.8-9.3,40.3
		c1.4,0,3.8,0,6.9,0.1L12.2,164.7z"/>
	<path class="st0" d="M194.1,63.7c0-32.6-26.4-59-59-59c-32.6,0-59,26.4-59,59c0,14.2,5,27.2,13.4,37.4l-13.4,13.4l-1.9-1.9
		l-3.1,3.1l-1.6-1.6l-46,46l1.6,1.6l-3.1,3.1l11.4,11.4l3.1-3.1l1.6,1.6l46-46l-1.6-1.6l3.1-3.1l-1.9-1.9L97,108.7
		c10.3,8.7,23.6,14,38.1,14C167.7,122.7,194.1,96.3,194.1,63.7z M84.7,63.7c0-27.8,22.6-50.4,50.4-50.4s50.4,22.6,50.4,50.4
		s-22.6,50.4-50.4,50.4S84.7,91.5,84.7,63.7z"/>
</g>
</svg>
