<?xml version="1.0" encoding="utf-8"?>
<!-- Generator: Adobe Illustrator 27.6.1, SVG Export Plug-In . SVG Version: 6.00 Build 0)  -->
<svg version="1.1" id="Layer_1" xmlns="http://www.w3.org/2000/svg" xmlns:xlink="http://www.w3.org/1999/xlink" x="0px" y="0px"
	 viewBox="0 0 200 200" style="enable-background:new 0 0 200 200;" xml:space="preserve">
<style type="text/css">
	.st0{fill:#131313;}
	.st1{filter:url(#Adobe_OpacityMaskFilter);}
	.st2{mask:url(#SVGID_1_);fill:#131313;}
</style>
<rect x="76.1" y="77.7" class="st0" width="17.5" height="58.6"/>
<rect x="135.2" y="77.7" class="st0" width="17.5" height="58.6"/>
<defs>
	<filter id="Adobe_OpacityMaskFilter" filterUnits="userSpaceOnUse" x="76.1" y="39.4" width="76.7" height="38.4">
		<feFlood  style="flood-color:white;flood-opacity:1" result="back"/>
		<feBlend  in="SourceGraphic" in2="back" mode="normal"/>
	</filter>
</defs>
<mask maskUnits="userSpaceOnUse" x="76.1" y="39.4" width="76.7" height="38.4" id="SVGID_1_">
	<g class="st1">
		<g>
			<path d="M80.5,65.2c21.2,0,38.4,17.2,38.4,38.4h0v58.6c0,2.2-3.9,4-8.8,4c-4.8,0-8.8-1.8-8.8-4v-58.6c0-11.5-9.3-20.8-20.8-20.8
				c-11.5,0-20.8,9.3-20.8,20.8v58.6c0,2.2-3.9,4-8.8,4c-4.8,0-8.8-1.8-8.8-4v-58.6C42.2,82.4,59.4,65.2,80.5,65.2 M80.5,63.2
				c-22.3,0-40.4,18.1-40.4,40.4v58.6c0,3.9,5.4,6,10.8,6c5.3,0,10.8-2,10.8-6v-58.6c0-10.4,8.4-18.8,18.8-18.8
				c10.4,0,18.8,8.4,18.8,18.8v58.6c0,3.9,5.4,6,10.8,6c5.3,0,10.8-2,10.8-6v-58.6C120.9,81.3,102.8,63.2,80.5,63.2L80.5,63.2z"/>
		</g>
	</g>
</mask>
<path class="st2" d="M114.4,56.9c11.5,0,20.8,9.3,20.8,20.8h17.5c0-21.2-17.2-38.4-38.4-38.4S76.1,56.6,76.1,77.7h17.5
	C93.6,66.2,102.9,56.9,114.4,56.9z"/>
<ellipse class="st0" cx="84.8" cy="136.3" rx="8.8" ry="4"/>
<ellipse class="st0" cx="144" cy="136.3" rx="8.8" ry="4"/>
<g>
	<rect x="42.2" y="103.6" class="st0" width="17.5" height="58.6"/>
	<rect x="101.4" y="103.6" class="st0" width="17.5" height="58.6"/>
	<path class="st0" d="M80.5,82.7c11.5,0,20.8,9.3,20.8,20.8h17.5c0-21.2-17.2-38.4-38.4-38.4s-38.4,17.2-38.4,38.4h17.5
		C59.7,92.1,69,82.7,80.5,82.7z"/>
	<ellipse class="st0" cx="51" cy="162.1" rx="8.8" ry="4"/>
	<ellipse class="st0" cx="110.1" cy="162.1" rx="8.8" ry="4"/>
</g>
</svg>
