<?xml version="1.0" encoding="utf-8"?>
<svg viewBox="0 0 217.943 167.846" xmlns="http://www.w3.org/2000/svg">
  <g transform="matrix(1, 0, 0, 1, 1.1763039827346802, 0.647873044013977)">
    <path fill="#0076BC" d="M 148.256 61.306 L 148.256 163.002 L 215.262 112.168 L 148.256 61.306 Z"/>
    <path d="M18.341,152.741c10.387,8.87,25.986,13.294,46.782,13.294c20.184,0,35.783-4.27,46.787-12.836 c11.005-9.174,16.516-22.015,16.516-38.524c0-7.64-1.499-14.69-5.047-21.105c-3.25-5.871-8.768-11.411-15.439-14.752 c-4.234-2.112-6.811-3.033-12.018-4.636c-5.619-1.722-33.604-9.356-36.43-10.1c-15.588-3.8-25.488-8.99-25.557-18.215 c0.807-17.837,17.43-19.262,26.609-19.262c9.465,0,16.967,1.991,22.467,5.963c9.877,7.686,8.778,17.448,8.778,17.448h31.125 c-0.612-15.291-6.117-27.686-16.509-37.168C96.316,4.287,81.936,0,63.292,0c-19.88,0-35.011,4.132-45.409,12.384 C7.485,20.951,2.289,32.722,2.289,47.704c0.046,19.245,9.168,30.593,17.432,35.777c5.018,3.004,16.424,7.611,31.188,10.547 l12.4,2.701c21.506,5.242,33.85,11.881,33.466,22.53c-0.234,6.415-2.443,11.319-7.342,14.679 c-4.476,3.061-12.087,5.035-21.552,5.035c-10.713,0-19.113-2.129-25.225-6.415c-5.814-3.668-9.34-10.089-10.553-19.262H0 C0.916,130.721,7.027,143.877,18.341,152.741" style="fill: rgb(235, 239, 250);"/>
  </g>
</svg>