<?xml version="1.0" encoding="utf-8"?>
<!-- Generator: Adobe Illustrator 26.3.1, SVG Export Plug-In . SVG Version: 6.00 Build 0)  -->
<svg version="1.1" id="layer" xmlns="http://www.w3.org/2000/svg" xmlns:xlink="http://www.w3.org/1999/xlink" x="0px" y="0px"
	 viewBox="0 0 158 162" style="enable-background:new 0 0 158 162;" xml:space="preserve">
<style type="text/css">
	.st0{fill:#78BE20;}
</style>
<g>
	<path class="st0" d="M122.7,86.1l22.7-8c2.9,14.2,1.4,27-4.3,38.4c-5.6,11.4-15.7,20.8-29.9,27.7c-17.9,8.9-34.7,10.5-50.8,4.7
		c-15.9-5.8-28.9-18.6-38.8-38.6c-10.3-20.6-12.8-39.2-8-55.9s15.9-29.1,32.8-37.6c16.3-8.2,32.4-9.1,48.3-3.3
		c15.9,6,28.9,19,39,39.2c0.6,1.2,1.6,3.1,2.7,5.6l-91.2,45.4c7.4,13,16.3,21.5,26.8,25.2c10.5,3.7,20.8,3.1,30.9-1.9
		c7.6-3.7,13.2-8.9,16.5-15.7C122.9,104.9,124.1,96.4,122.7,86.1 M38.1,86.5l68.3-34c-6-9.9-12.4-16.3-19.4-19.2
		c-10.7-4.7-21.2-4.5-31.6,0.8c-9.5,4.7-15.9,11.8-19.2,21.5C32.7,65.2,33.5,75.4,38.1,86.5"/>
</g>
</svg>
